<svg width="24" height="36" viewBox="0 0 24 36" fill="none" xmlns="http://www.w3.org/2000/svg">
<path d="M20.7918 0H3.16406C1.4194 0 0 1.4194 0 3.16406V32.8359C0 34.5806 1.4194 36 3.16406 36H20.7918C22.5364 36 23.9558 34.5806 23.9558 32.8359V3.16406C23.9559 1.4194 22.5365 0 20.7918 0ZM20.7918 33.8906H3.16406C2.58251 33.8906 2.10938 33.4175 2.10938 32.8359V3.16406C2.10938 2.58251 2.58251 2.10938 3.16406 2.10938H20.7918C21.3733 2.10938 21.8464 2.58251 21.8464 3.16406V32.8359H21.8465C21.8465 33.4175 21.3734 33.8906 20.7918 33.8906Z" fill="black"/>
<path d="M11.9786 4.04578C9.47701 4.04578 7.44182 6.08097 7.44182 8.58255C7.44182 11.0841 9.47701 13.1194 11.9786 13.1194C14.4802 13.1194 16.5154 11.0842 16.5154 8.58262C16.5154 6.08104 14.4802 4.04578 11.9786 4.04578ZM11.9786 11.01C10.6401 11.01 9.55119 9.92109 9.55119 8.58262C9.55119 7.24415 10.6401 6.15515 11.9786 6.15515C13.3171 6.15515 14.406 7.24408 14.406 8.58255C14.406 9.92102 13.3171 11.01 11.9786 11.01ZM11.9786 14.6931C7.39365 14.6931 3.66357 18.4231 3.66357 23.0081C3.66357 27.593 7.39365 31.323 11.9786 31.323C16.5635 31.323 20.2936 27.5929 20.2936 23.0081C20.2936 18.4232 16.5635 14.6931 11.9786 14.6931ZM11.9786 29.2136C8.55683 29.2136 5.77295 26.4298 5.77295 23.0081C5.77295 19.5862 8.55683 16.8024 11.9786 16.8024C15.4003 16.8024 18.1842 19.5862 18.1842 23.0081C18.1842 26.4298 15.4003 29.2136 11.9786 29.2136Z" fill="black"/>
<path d="M11.9787 19.5006C10.0444 19.5006 8.4707 21.0743 8.4707 23.0086C8.4707 24.9428 10.0444 26.5165 11.9787 26.5165C13.913 26.5165 15.4866 24.9428 15.4866 23.0086C15.4866 21.0743 13.913 19.5006 11.9787 19.5006ZM11.9787 24.4071C11.2075 24.4071 10.5801 23.7797 10.5801 23.0086C10.5801 22.2374 11.2075 21.61 11.9787 21.61C12.7499 21.61 13.3772 22.2374 13.3772 23.0086C13.3772 23.7797 12.7499 24.4071 11.9787 24.4071Z" fill="black"/>
</svg>
